<?xml version="1.0" standalone="no"?>
<!DOCTYPE svg PUBLIC "-//W3C//DTD SVG 20010904//EN"
 "http://www.w3.org/TR/2001/REC-SVG-20010904/DTD/svg10.dtd">
<svg version="1.0" xmlns="http://www.w3.org/2000/svg"
 width="1380.000000pt" height="945.000000pt" viewBox="0 0 1380.000000 945.000000"
 preserveAspectRatio="xMidYMid meet">

<g transform="translate(0.000000,945.000000) scale(0.100000,-0.100000)"
fill="#000000" stroke="none">
<path d="M5975 8651 c-16 -4 -44 -15 -61 -24 -37 -19 -109 -96 -119 -126 -4
-15 -12 -20 -22 -17 -83 32 -166 30 -218 -4 l-30 -20 61 0 c62 0 137 -21 212
-59 52 -27 52 -27 52 7 0 48 46 128 110 191 34 34 58 61 53 60 -4 -1 -21 -4
-38 -8z"/>
<path d="M7939 8595 c79 -60 145 -148 161 -213 l11 -49 109 55 c94 47 118 55
187 61 l78 6 -46 23 c-57 28 -121 28 -201 1 l-62 -21 -21 29 c-66 92 -139 140
-227 150 l-53 6 64 -48z"/>
<path d="M3212 7912 c-154 -55 -270 -186 -422 -477 -100 -193 -142 -254 -256
-381 -215 -236 -274 -354 -274 -547 0 -84 0 -85 -40 -133 -79 -96 -101 -176
-75 -276 31 -120 113 -232 261 -355 146 -121 503 -477 537 -536 47 -79 165
-212 339 -382 158 -154 228 -214 387 -327 l74 -53 39 -100 c21 -55 74 -205
118 -333 l80 -234 -24 -31 c-39 -52 -56 -94 -56 -136 0 -41 95 -519 129 -650
11 -41 26 -78 33 -82 7 -5 43 -20 80 -35 38 -14 69 -33 72 -42 8 -25 54 -326
62 -405 3 -37 10 -70 15 -73 5 -3 9 3 9 13 0 25 -48 400 -56 441 -4 17 -5 32
-3 32 2 0 40 -7 84 -15 115 -23 336 -20 462 4 294 57 563 200 700 371 l47 59
71 -137 c58 -112 133 -241 151 -261 2 -2 6 -2 9 1 3 3 -13 36 -36 74 -37 61
-179 337 -179 348 0 9 71 28 159 42 72 11 120 26 205 65 181 83 277 150 354
246 19 25 44 44 61 48 16 3 51 20 77 37 l48 30 81 -11 c100 -14 199 -14 248 0
34 9 42 7 97 -27 55 -34 64 -36 117 -32 32 3 76 13 98 22 37 16 39 18 22 31
-12 8 -14 15 -8 20 15 9 -5 45 -24 45 -11 0 -12 5 -5 26 13 33 13 34 -8 34
-10 0 -23 5 -30 12 -9 9 -16 5 -33 -16 -29 -37 -36 -25 -8 14 18 23 24 47 27
98 4 81 -14 121 -76 169 l-42 32 24 18 c13 10 32 23 42 29 17 10 17 12 -4 29
-19 17 -20 21 -6 36 14 15 12 19 -19 38 -19 11 -41 21 -50 21 -9 0 -19 9 -22
20 -3 11 -11 20 -16 20 -11 0 -149 -141 -149 -152 0 -4 -13 -8 -28 -8 -16 0
-51 -7 -79 -15 -48 -14 -53 -14 -98 6 -56 25 -104 21 -182 -16 -117 -54 -323
-209 -337 -253 -3 -10 -23 -26 -43 -37 -20 -11 -62 -38 -93 -61 -52 -38 -61
-41 -140 -47 -47 -3 -98 -11 -115 -16 -17 -6 -42 -8 -59 -3 -27 7 -31 15 -62
131 -40 144 -65 205 -102 245 -35 37 -111 86 -134 86 -24 0 -30 15 -76 185
-91 337 -93 345 -77 400 37 121 3 348 -75 510 -39 81 -74 125 -143 181 -36 29
-37 32 -26 63 8 22 9 62 4 120 -8 99 -8 119 1 222 6 81 -15 189 -55 267 -10
20 -21 70 -25 111 -11 126 -97 345 -181 461 -44 61 -61 97 -69 146 -4 22 -20
65 -35 96 l-28 55 31 25 c17 14 45 49 61 79 27 49 30 62 30 150 l0 97 -61 88
c-34 49 -87 131 -118 181 -72 117 -99 149 -147 173 -46 24 -89 25 -155 5 -27
-9 -85 -20 -128 -26 -43 -5 -91 -16 -106 -24 -27 -14 -84 -73 -92 -95 -2 -8
-24 -2 -66 20 -34 18 -83 35 -109 38 -45 5 -51 9 -93 66 -86 116 -173 149
-288 108z m141 -41 c28 -11 82 -62 116 -109 l21 -31 -52 -26 c-58 -29 -94 -57
-268 -211 -213 -188 -321 -312 -435 -499 -55 -89 -80 -125 -143 -205 -62 -78
-304 -340 -314 -340 -27 0 9 204 51 289 45 91 80 138 202 268 138 148 176 201
279 388 132 242 203 339 301 410 87 65 180 89 242 66z m870 -75 c47 -20 85
-66 171 -206 l77 -125 -48 49 c-64 64 -109 86 -178 86 -65 0 -170 -33 -202
-62 -13 -12 -26 -36 -29 -55 -3 -18 -9 -35 -13 -37 -4 -3 -53 41 -109 98
l-103 102 30 42 c39 53 56 61 160 78 47 8 106 21 131 28 58 19 74 19 113 2z
m-560 -127 c92 -47 159 -110 417 -387 117 -126 124 -140 57 -105 -43 22 -138
20 -202 -4 l-50 -19 -11 56 -11 55 -2 -55 c-1 -30 -5 -60 -9 -67 -4 -6 -57
-42 -117 -78 -139 -84 -251 -166 -437 -319 -81 -67 -174 -136 -205 -153 -32
-18 -54 -33 -49 -33 5 0 2 -7 -5 -17 -21 -25 158 98 318 218 241 182 564 370
658 384 106 16 205 -56 337 -247 128 -186 239 -380 225 -394 -3 -3 -21 6 -41
20 -58 39 -101 49 -183 43 l-73 -5 5 56 c2 31 2 48 -1 37 -25 -99 -26 -100
-174 -174 -180 -90 -307 -170 -493 -309 -82 -62 -163 -116 -179 -119 -15 -3
-28 -10 -28 -16 0 -5 -8 -16 -17 -24 -48 -40 117 60 229 138 315 221 646 389
765 389 88 0 189 -79 276 -215 129 -203 190 -390 158 -487 -14 -43 -252 -281
-303 -303 -18 -8 -26 -14 -18 -14 8 -1 34 10 58 24 39 22 48 23 95 15 127 -24
265 -135 325 -260 38 -80 82 -251 89 -345 10 -123 -36 -246 -151 -410 l-57
-80 55 59 c30 32 70 80 88 107 18 27 36 49 39 49 3 0 16 -39 29 -87 36 -139
145 -507 189 -637 47 -136 48 -129 -38 -220 -137 -143 -343 -237 -629 -287
-194 -33 -446 -21 -488 24 -7 7 -28 72 -49 146 -63 228 -206 637 -261 743 -30
58 -5 37 86 -72 50 -60 94 -110 96 -110 6 0 -110 151 -175 229 -24 29 -94 90
-155 135 -138 102 -324 273 -481 442 -148 158 -194 219 -237 309 -29 63 -33
79 -33 160 0 100 17 152 77 228 18 23 24 36 14 28 -82 -66 -137 -244 -107
-349 6 -18 6 -32 2 -30 -5 2 -76 74 -159 160 -168 175 -178 193 -169 306 7 86
51 172 135 263 52 58 58 67 27 42 -69 -53 -135 -131 -163 -191 -22 -47 -27
-71 -27 -139 0 -46 -3 -83 -6 -83 -7 0 -100 72 -173 135 -57 50 -150 178 -177
245 -8 19 -14 64 -14 100 1 92 29 140 177 298 278 299 323 352 396 462 164
249 245 340 470 533 177 152 212 179 270 208 52 26 141 25 195 -2z m664 -110
c41 -20 143 -122 143 -143 0 -7 -43 -12 -113 -14 -61 -1 -154 -11 -206 -22
l-94 -19 -18 22 c-23 27 -23 46 -3 97 18 45 33 55 114 81 74 24 125 23 177 -2z
m204 -176 c31 -65 24 -174 -17 -240 -41 -67 -194 -165 -194 -125 0 4 -25 33
-56 65 -32 32 -60 72 -65 91 -5 19 -30 57 -56 86 -25 28 -44 53 -41 55 9 9
143 25 271 31 104 5 140 10 144 21 3 7 -7 33 -22 56 -23 34 -24 38 -7 23 12
-10 31 -39 43 -63z m-41 -2 c0 -9 -96 -21 -179 -21 -52 0 -117 -9 -198 -26
-48 -10 -42 13 7 26 96 26 370 42 370 21z m-29 -416 c11 -25 25 -73 31 -106 8
-45 22 -79 54 -125 51 -74 90 -149 139 -267 31 -76 69 -207 60 -207 -2 0 -20
28 -41 63 -20 34 -54 83 -75 109 -30 36 -39 55 -39 85 0 45 -73 196 -168 347
-34 54 -62 99 -62 101 0 5 65 45 73 45 4 0 17 -20 28 -45z m360 -1318 c1 -59
0 -109 -2 -111 -2 -3 -35 6 -74 20 -38 13 -82 24 -97 24 -16 0 -28 2 -28 4 0
11 186 184 192 178 4 -4 8 -56 9 -115z m1976 -1406 c-64 -65 -137 -174 -137
-205 0 -9 -5 -16 -11 -16 -13 0 -3 52 17 92 19 37 108 146 152 186 65 59 47
13 -21 -57z m-1532 -55 c53 -23 120 -91 145 -148 50 -117 4 -245 -140 -387
-185 -184 -463 -307 -771 -342 -247 -27 -464 48 -555 193 -39 61 -42 117 -10
182 36 74 53 86 67 50 5 -16 8 -39 5 -51 -3 -13 -9 -34 -12 -48 -31 -127 123
-225 354 -225 94 0 278 27 408 60 261 66 478 210 559 372 62 124 49 185 -64
293 -61 58 -55 79 14 51z m1230 -16 c4 -6 -11 -10 -38 -10 -49 0 -173 -52
-279 -116 -91 -55 -80 -33 14 29 89 59 138 85 178 98 37 11 118 11 125 -1z
m158 -227 c2 -10 8 -26 12 -35 6 -15 2 -18 -23 -18 -30 0 -30 0 -19 35 11 38
22 45 30 18z m-351 -58 l3 -55 -35 36 -35 35 25 19 c14 11 28 20 32 20 3 0 8
-25 10 -55z m385 -20 c67 0 119 -3 115 -6 -36 -31 -181 -38 -261 -12 -59 19
-69 38 -13 26 20 -4 92 -8 159 -8z m-750 -133 c43 -23 73 -53 37 -37 -82 34
-101 37 -219 32 -82 -3 -140 -11 -185 -26 -35 -11 -66 -18 -69 -16 -2 3 23 17
55 32 103 47 303 55 381 15z m218 -48 c-34 -63 -184 -165 -242 -164 -24 1 -21
4 19 19 62 25 167 109 198 160 31 52 54 38 25 -15z m-310 -14 c4 -6 -14 -10
-47 -10 -29 0 -81 -6 -115 -14 -35 -7 -63 -9 -63 -5 0 26 210 53 225 29z
m-205 -226 c0 -9 -15 -31 -34 -50 -26 -26 -42 -34 -67 -33 -19 0 -27 3 -19 6
50 18 78 37 94 63 19 34 26 37 26 14z m-540 -83 c0 -18 -143 -100 -228 -131
-146 -54 -258 -73 -427 -74 -116 0 -165 4 -215 18 -78 21 -156 59 -196 93 -32
27 -28 26 64 -12 166 -69 405 -73 642 -11 157 41 260 75 315 104 47 25 45 24
45 13z"/>
<path d="M3363 6033 c9 -2 23 -2 30 0 6 3 -1 5 -18 5 -16 0 -22 -2 -12 -5z"/>
<path d="M4639 5838 c-167 -238 -318 -324 -579 -329 -78 -1 -78 -3 5 -15 l50
-7 -55 -18 c-30 -11 -44 -17 -30 -14 97 18 235 50 285 65 33 10 62 16 64 14 9
-9 4 -94 -8 -137 -12 -43 -16 -46 -55 -53 -22 -3 -59 -13 -81 -22 -38 -14
-188 -104 -210 -125 -15 -14 32 12 95 52 68 43 156 80 193 81 15 0 27 -2 27
-5 0 -3 -26 -45 -58 -93 -99 -146 -98 -152 3 -17 95 127 125 193 125 277 l0
66 50 37 c27 20 63 53 80 73 17 20 45 42 63 49 27 10 28 12 9 12 l-23 1 24 33
c26 35 101 167 95 167 -2 0 -33 -41 -69 -92z"/>
<path d="M4305 5050 c-28 -31 -152 -89 -225 -104 l-65 -14 52 -1 c29 -1 74 6
100 15 54 18 138 76 154 105 13 25 7 24 -16 -1z"/>
<path d="M4560 5001 c-58 -26 -163 -69 -235 -95 -171 -63 -178 -66 -135 -59
76 12 253 76 356 128 92 47 141 76 124 75 -3 -1 -52 -22 -110 -49z"/>
<path d="M4687 5008 c-8 -18 -55 -80 -105 -138 -51 -58 -92 -109 -92 -115 0
-14 158 145 182 183 18 30 41 102 32 102 -2 0 -10 -15 -17 -32z"/>
<path d="M4932 4823 c-72 -92 -238 -259 -337 -338 -107 -87 -111 -96 -15 -32
84 56 205 165 271 244 60 71 155 203 146 203 -2 0 -31 -35 -65 -77z"/>
<path d="M3980 4166 c0 -2 8 -10 18 -17 15 -13 16 -12 3 4 -13 16 -21 21 -21
13z"/>
<path d="M10558 7910 c-66 -20 -121 -70 -176 -161 -19 -32 -29 -37 -70 -43
-29 -4 -70 -20 -103 -41 l-54 -34 -34 40 c-44 53 -75 67 -157 74 -38 3 -103
13 -145 22 -150 31 -193 1 -317 -225 -45 -82 -91 -160 -102 -175 -81 -103 -55
-289 54 -384 l43 -37 -23 -51 c-13 -27 -27 -78 -33 -112 -7 -42 -20 -78 -41
-109 -82 -119 -160 -338 -168 -469 -3 -59 -14 -119 -32 -175 -38 -116 -46
-201 -27 -276 11 -43 14 -87 10 -159 -4 -77 -2 -108 10 -136 l15 -37 -49 -48
c-95 -93 -134 -174 -168 -344 -28 -135 -27 -250 0 -333 l21 -64 -21 -109 c-27
-135 -69 -337 -82 -385 -7 -29 -17 -40 -51 -55 -51 -22 -110 -73 -137 -117
-17 -27 -50 -150 -76 -277 -10 -49 -13 -52 -38 -36 -12 8 -57 24 -101 35 -73
18 -83 24 -155 93 -48 45 -84 89 -95 114 -21 52 -188 230 -270 288 -81 58
-132 73 -194 58 -43 -11 -51 -10 -96 13 -27 14 -57 25 -67 25 -12 0 -32 24
-58 68 -22 37 -51 82 -65 100 -24 33 -25 34 -38 13 -7 -12 -23 -21 -36 -21
-36 0 -87 -29 -73 -43 16 -16 14 -23 -16 -36 l-26 -12 36 -30 c21 -17 37 -34
37 -39 0 -5 -20 -18 -44 -28 -86 -39 -134 -150 -102 -242 17 -49 13 -67 -5
-26 -9 19 -17 25 -28 20 -9 -4 -24 -6 -35 -6 -14 1 -17 -4 -13 -24 3 -20 -1
-27 -20 -35 -18 -7 -24 -15 -20 -29 3 -11 -1 -21 -10 -24 -36 -14 47 -65 129
-80 29 -5 53 -1 99 18 57 23 64 24 90 10 44 -22 145 -42 241 -47 84 -5 89 -7
130 -42 24 -20 57 -44 73 -52 21 -10 41 -35 63 -78 37 -69 152 -192 235 -250
29 -19 74 -51 101 -70 28 -19 88 -48 135 -65 100 -36 186 -77 201 -95 13 -15
-35 -137 -123 -315 -34 -69 -63 -128 -65 -132 -2 -5 0 -8 5 -8 12 0 131 232
173 336 l33 82 58 -63 c137 -145 355 -256 619 -312 127 -27 443 -24 555 5 44
11 81 19 83 17 2 -2 -1 -54 -7 -116 -15 -163 -23 -389 -12 -359 4 14 11 73 15
130 8 118 23 279 32 327 4 29 13 36 79 67 52 24 78 42 84 59 12 30 41 210 82
494 31 219 32 223 14 269 -10 25 -31 61 -47 80 -30 33 -30 35 -18 86 20 85 97
352 142 497 l42 134 96 76 c132 105 223 193 368 356 155 173 255 302 292 375
15 30 67 98 115 150 48 52 121 135 163 184 43 49 109 119 147 154 172 161 220
218 271 317 47 94 49 100 49 184 0 97 -15 133 -94 223 -37 42 -41 51 -41 100
-1 189 -99 363 -317 563 -92 84 -166 183 -273 363 -165 279 -293 405 -455 448
-56 15 -78 16 -117 4z m139 -58 c117 -41 234 -151 345 -324 35 -54 94 -147
131 -206 56 -87 98 -136 226 -262 230 -226 279 -308 307 -512 4 -35 3 -48 -6
-48 -7 0 -99 87 -204 193 -136 136 -210 219 -256 286 -136 202 -264 335 -495
516 -167 132 -232 176 -288 196 -20 7 -36 17 -35 21 2 4 21 32 43 62 67 93
128 113 232 78z m-877 -123 c19 -4 71 -11 115 -15 92 -7 133 -27 166 -80 l21
-35 -64 -67 c-35 -37 -77 -84 -92 -104 -16 -21 -31 -38 -35 -38 -3 0 -15 21
-25 46 -22 54 -59 75 -164 94 -102 18 -155 -1 -235 -84 l-49 -51 36 65 c20 36
53 95 72 132 43 81 93 134 137 147 32 9 48 7 117 -10z m660 -99 c89 -45 396
-285 506 -394 55 -56 149 -166 209 -245 76 -102 150 -185 249 -280 386 -372
396 -385 396 -506 0 -61 -5 -79 -40 -150 -47 -95 -92 -150 -210 -258 l-85 -78
-6 78 c-10 130 -72 228 -203 321 -42 31 -40 27 26 -40 42 -42 88 -100 108
-138 32 -60 35 -72 35 -150 0 -103 2 -100 -160 -286 -66 -75 -125 -144 -130
-151 -8 -10 -11 12 -10 79 0 85 -3 99 -32 158 -18 36 -51 83 -74 105 l-43 40
38 -44 c21 -24 50 -69 65 -100 22 -47 26 -69 25 -141 0 -144 -53 -242 -267
-491 -174 -204 -295 -328 -423 -435 -122 -102 -135 -117 -248 -284 -83 -125
-64 -107 36 32 35 48 66 87 69 87 3 1 -22 -83 -57 -186 -53 -158 -126 -434
-186 -698 l-14 -60 -69 -24 c-139 -47 -422 -39 -654 20 -191 48 -377 152 -464
262 l-31 37 72 288 c39 158 83 343 98 412 14 69 29 136 33 149 7 24 7 24 29
-10 11 -19 55 -68 97 -109 l77 -75 -72 90 c-90 114 -148 227 -162 323 -9 58
-8 90 6 176 35 218 69 298 166 397 109 110 220 150 302 110 25 -11 53 -21 64
-21 10 1 2 7 -19 14 -44 16 -44 16 -167 122 -164 141 -164 142 -168 233 -5
109 15 180 104 359 93 188 155 260 247 287 68 20 118 12 251 -36 117 -42 393
-180 531 -265 207 -127 341 -198 279 -148 -18 15 -18 15 11 9 16 -4 27 -3 23
0 -4 4 -29 11 -55 16 -36 7 -88 36 -206 115 -166 110 -381 228 -532 289 -106
44 -131 64 -150 125 l-15 45 5 -42 c3 -23 8 -48 11 -56 4 -12 -5 -14 -59 -10
-77 7 -124 -7 -191 -54 l-49 -35 7 29 c15 69 191 386 285 514 88 119 190 163
297 129 132 -42 465 -225 668 -365 51 -35 119 -79 152 -98 32 -19 77 -45 98
-58 22 -13 36 -18 32 -11 -6 10 0 11 21 7 15 -3 6 3 -22 14 -66 24 -140 69
-234 140 -182 139 -374 262 -531 341 -84 42 -89 49 -91 135 l-1 50 -10 -40
c-5 -22 -7 -52 -4 -67 l5 -26 -54 19 c-82 29 -141 25 -239 -16 -17 -7 -17 -6
-6 16 7 13 34 46 59 74 26 27 83 95 126 150 95 119 204 231 262 270 95 62 162
66 263 15z m-677 -140 c60 -19 66 -23 86 -65 26 -56 26 -64 -2 -97 l-22 -27
-65 14 c-39 9 -123 15 -208 15 l-143 0 30 43 c36 52 87 101 126 121 41 22 120
20 198 -4z m-376 -160 c-15 -27 -19 -42 -12 -49 7 -7 88 -12 207 -13 108 -2
199 -6 203 -10 4 -3 -12 -31 -34 -61 -22 -29 -44 -69 -47 -88 -4 -19 -25 -54
-48 -79 -23 -25 -50 -58 -61 -72 l-20 -27 -51 25 c-122 60 -176 139 -178 260
0 62 3 77 27 113 35 52 42 53 14 1z m386 -30 c65 -17 46 -33 -22 -20 -30 5
-121 10 -202 10 -86 0 -149 4 -149 9 0 6 15 12 33 14 56 9 290 -1 340 -13z
m-223 -409 c0 -4 -23 -49 -50 -99 -81 -144 -142 -288 -149 -351 -5 -38 -15
-68 -33 -91 -14 -19 -45 -69 -67 -110 -22 -41 -41 -70 -41 -64 -1 78 88 332
159 453 34 58 51 99 56 135 7 52 18 100 37 148 l10 27 39 -20 c21 -10 39 -23
39 -28z m-262 -1315 c45 -38 82 -73 82 -76 0 -4 -20 -10 -45 -13 -25 -4 -67
-18 -94 -31 l-49 -25 -6 22 c-3 12 -6 66 -6 121 0 92 1 98 18 85 9 -8 54 -45
100 -83z m-1771 -1235 c66 -109 97 -201 75 -223 -9 -9 -12 -7 -12 8 0 44 -46
152 -97 226 -29 43 -53 83 -53 89 0 29 31 -7 87 -100z m378 -140 c27 -14 90
-66 140 -115 92 -90 89 -97 -7 -15 -87 75 -188 139 -230 145 -27 5 -35 10 -26
15 19 13 65 1 123 -30z m965 -136 c0 -8 -19 -34 -43 -57 -58 -58 -91 -128 -84
-175 15 -88 97 -205 196 -277 297 -218 953 -286 1131 -117 51 49 66 103 45
166 -16 44 -13 105 4 105 11 0 46 -40 61 -70 42 -80 26 -160 -50 -243 -133
-146 -395 -198 -698 -138 -336 66 -637 251 -734 451 -61 125 -20 265 101 342
50 31 71 35 71 13z m-1263 -50 c3 -33 1 -35 -28 -35 -30 0 -31 1 -17 23 8 12
18 28 22 35 13 21 21 13 23 -23z m-112 -51 c28 -8 92 -17 143 -21 110 -7 104
-23 -9 -23 -83 0 -160 20 -199 52 -20 16 -21 19 -5 13 11 -4 43 -14 70 -21z
m465 -19 c13 -14 22 -26 19 -28 -2 -2 -22 -17 -43 -33 -35 -25 -38 -26 -28 -7
7 12 12 38 12 57 0 43 8 45 40 11z m93 -248 c25 -60 119 -171 164 -192 21 -10
32 -20 25 -23 -7 -2 -31 8 -55 21 -78 47 -167 157 -167 208 0 41 12 36 33 -14z
m407 -19 c93 -24 149 -50 181 -84 27 -30 25 -30 -50 10 -65 34 -226 76 -290
76 -25 0 -61 -4 -79 -9 -39 -12 -43 2 -4 17 60 24 121 22 242 -10z m25 -92
c73 -33 71 -50 -2 -20 -32 13 -82 28 -110 34 -29 6 -53 14 -53 17 0 14 115 -8
165 -31z m59 -292 c15 -13 34 -24 42 -24 8 0 14 -5 14 -11 0 -20 -54 1 -82 32
-19 20 -28 40 -27 62 l1 32 12 -34 c6 -18 24 -44 40 -57z m601 -75 c99 -34
288 -74 417 -88 179 -20 413 23 524 95 13 9 27 14 30 11 7 -7 -66 -61 -117
-88 -214 -110 -674 -81 -901 57 -58 35 -90 66 -52 49 10 -5 55 -21 99 -36z"/>
<path d="M9337 5783 c20 -32 49 -74 65 -94 15 -20 28 -39 28 -41 0 -3 -15 -3
-32 -1 -30 2 -29 1 8 -10 23 -7 65 -34 95 -60 29 -27 69 -58 89 -69 34 -20 35
-23 36 -78 1 -78 43 -163 130 -265 38 -45 77 -92 87 -105 18 -25 18 -25 1 5
-9 17 -44 65 -76 107 -32 42 -58 81 -58 87 0 21 106 -7 193 -51 31 -15 57 -26
57 -23 0 14 -167 84 -215 90 -49 7 -54 10 -69 44 -20 46 -30 104 -22 129 6 18
10 18 59 6 28 -7 99 -20 157 -29 162 -25 168 -25 125 -14 -70 19 -71 22 -10
34 l60 12 -120 2 c-208 2 -307 42 -445 181 -47 47 -103 112 -125 143 -52 74
-65 74 -18 0z"/>
<path d="M9970 5175 c0 -7 81 -47 86 -43 2 3 -17 14 -41 26 -25 12 -45 20 -45
17z"/>
<path d="M9765 4965 c68 -64 185 -102 258 -85 l32 8 -35 1 c-70 2 -177 40
-260 91 l-35 22 40 -37z"/>
<path d="M9400 4957 c12 -14 151 -77 233 -106 87 -30 285 -76 294 -67 2 2 -18
9 -46 15 -64 14 -251 74 -361 116 -126 49 -125 49 -120 42z"/>
<path d="M9360 4941 c-1 -50 108 -180 210 -250 l35 -24 -35 39 c-19 21 -67 73
-106 114 -40 41 -79 89 -88 105 -8 17 -15 24 -16 16z"/>
<path d="M9102 4753 c97 -137 305 -321 458 -404 30 -16 44 -21 30 -12 -152
108 -248 189 -373 314 -91 92 -135 131 -115 102z"/>
<path d="M6832 7893 c-31 -15 -112 -97 -112 -113 0 -4 -24 1 -52 11 -70 24
-162 24 -213 0 l-40 -19 37 -1 c92 -2 211 -45 252 -90 l19 -21 35 62 c46 84
80 126 126 160 l39 28 -29 0 c-16 0 -44 -8 -62 -17z"/>
<path d="M5823 7593 c-12 -18 -17 -44 -16 -84 l1 -58 -43 -26 c-46 -26 -77
-63 -90 -105 -7 -23 -6 -23 30 9 45 39 109 70 146 71 l26 0 -19 58 c-12 35
-18 77 -16 110 2 28 2 52 1 52 -2 0 -10 -12 -20 -27z"/>
<path d="M8069 7273 c66 -60 121 -144 121 -183 0 -13 19 -7 89 28 66 33 107
47 153 51 58 6 61 8 40 19 -42 24 -113 26 -174 5 -32 -11 -58 -17 -58 -13 0
14 -81 99 -114 119 -19 12 -54 25 -80 30 l-46 8 69 -64z"/>
<path d="M6948 7036 c42 -48 72 -108 72 -144 l0 -28 72 24 c50 17 86 23 116
19 42 -5 43 -4 20 12 -16 11 -45 16 -92 16 l-68 1 -19 36 c-20 40 -69 81 -109
93 -24 8 -23 7 8 -29z"/>
<path d="M7788 6627 c23 -23 46 -56 52 -73 l11 -31 56 29 c31 15 69 28 85 28
17 0 27 4 23 10 -8 13 -91 13 -115 0 -15 -8 -23 -4 -40 20 -23 32 -68 60 -97
60 -13 0 -6 -11 25 -43z"/>
<path d="M6823 6165 c-17 -7 -41 -27 -54 -44 -17 -24 -26 -28 -40 -21 -22 12
-119 13 -137 1 -9 -5 3 -10 36 -15 27 -3 67 -18 87 -32 21 -14 38 -24 39 -22
2 2 14 24 29 50 15 25 42 58 59 72 36 28 30 32 -19 11z"/>
<path d="M7476 6031 c-3 -5 4 -11 17 -15 13 -3 40 -21 62 -39 l39 -34 24 29
c14 16 41 37 61 48 l36 19 -36 1 c-22 0 -47 -8 -63 -21 l-26 -21 -43 21 c-47
23 -63 26 -71 12z"/>
<path d="M7096 5591 c22 -10 50 -31 63 -46 l22 -28 32 30 c17 17 46 38 62 47
l30 17 -39 -5 c-21 -3 -46 -12 -56 -21 -16 -15 -20 -14 -51 4 -19 12 -50 21
-69 21 l-35 0 41 -19z"/>
<path d="M7371 5093 c13 -16 24 -29 25 -31 1 -1 16 5 35 13 l34 16 -31 -5
c-23 -4 -37 0 -49 14 -10 11 -23 20 -28 20 -6 0 0 -12 14 -27z"/>
<path d="M6535 4990 c4 -13 2 -20 -7 -20 -7 -1 -2 -10 12 -21 23 -20 24 -20
31 -2 7 20 1 44 -15 55 -19 13 -28 8 -21 -12z"/>
<path d="M6312 4978 c-18 -18 -14 -26 13 -24 16 0 24 6 23 15 -4 19 -21 24
-36 9z"/>
<path d="M6722 4911 c-10 -6 -4 -10 19 -15 35 -7 45 -3 34 13 -7 13 -35 14
-53 2z"/>
<path d="M7185 4801 c-6 -11 9 -23 19 -14 9 9 7 23 -3 23 -6 0 -12 -4 -16 -9z"/>
<path d="M6424 4786 c-19 -14 -19 -15 0 -22 12 -5 21 -3 24 4 2 7 10 12 18 12
9 0 12 5 9 10 -9 14 -28 12 -51 -4z"/>
<path d="M7025 4760 c3 -5 11 -10 16 -10 6 0 7 5 4 10 -3 6 -11 10 -16 10 -6
0 -7 -4 -4 -10z"/>
<path d="M6723 4743 c-39 -8 -26 -31 20 -35 49 -6 66 4 47 27 -12 15 -24 16
-67 8z"/>
<path d="M6526 4714 c-8 -22 -8 -22 13 -34 19 -10 71 4 71 20 0 29 -73 42 -84
14z"/>
<path d="M7064 4619 c0 -12 7 -24 14 -27 9 -3 13 3 10 19 -4 29 -26 36 -24 8z"/>
<path d="M6905 4619 c-10 -15 1 -23 20 -15 9 3 13 10 10 16 -8 13 -22 13 -30
-1z"/>
<path d="M7270 4603 c0 -13 67 -29 77 -19 4 3 2 11 -5 18 -15 15 -72 16 -72 1z"/>
<path d="M6660 4540 c-8 -5 -11 -12 -7 -16 4 -4 13 -2 19 4 15 15 7 24 -12 12z"/>
<path d="M7195 4510 c-23 -10 -22 -10 24 -17 24 -3 32 -1 29 9 -6 16 -27 20
-53 8z"/>
<path d="M6990 4485 c-15 -8 -19 -14 -10 -14 18 -1 46 16 40 23 -3 2 -16 -2
-30 -9z"/>
<path d="M6892 4438 c-8 -8 -8 -17 -1 -30 12 -21 32 -23 48 -4 15 18 -30 51
-47 34z"/>
<path d="M7057 4435 c-8 -19 9 -28 39 -21 21 6 24 9 14 21 -16 19 -46 19 -53
0z"/>
<path d="M7000 4355 c0 -8 7 -15 15 -15 9 0 12 6 9 15 -4 8 -10 15 -15 15 -5
0 -9 -7 -9 -15z"/>
<path d="M7190 3720 c0 -11 3 -20 8 -20 4 0 18 -3 32 -7 l25 -6 -24 27 c-29
31 -41 33 -41 6z"/>
<path d="M7250 3600 c0 -27 25 -44 40 -26 14 18 7 32 -20 39 -14 4 -20 0 -20
-13z"/>
<path d="M7002 3572 c-7 -2 -12 -12 -12 -23 0 -23 75 -66 82 -46 6 15 -54 75
-70 69z"/>
<path d="M7410 3541 c-19 -15 -22 -22 -12 -33 6 -8 9 -18 5 -21 -13 -13 63 -7
82 7 23 16 14 46 -15 46 -11 0 -20 5 -20 10 0 15 -12 12 -40 -9z"/>
<path d="M7295 3500 c3 -5 15 -10 26 -10 11 0 17 5 14 10 -3 6 -15 10 -26 10
-11 0 -17 -4 -14 -10z"/>
<path d="M7161 3441 c-8 -14 -7 -22 6 -32 10 -8 14 -9 10 -2 -4 6 -3 14 3 18
13 8 13 35 0 35 -5 0 -14 -9 -19 -19z"/>
<path d="M6955 3360 c-8 -13 15 -24 27 -12 6 6 4 11 -6 15 -8 3 -18 2 -21 -3z"/>
<path d="M7290 3352 c0 -14 11 -21 26 -15 8 3 11 9 8 14 -7 11 -34 12 -34 1z"/>
<path d="M7120 3286 c0 -9 5 -16 10 -16 6 0 10 4 10 9 0 6 -4 13 -10 16 -5 3
-10 -1 -10 -9z"/>
<path d="M7540 3270 c0 -5 9 -10 21 -10 11 0 17 5 14 10 -3 6 -13 10 -21 10
-8 0 -14 -4 -14 -10z"/>
<path d="M7265 3203 c6 -24 30 -52 46 -53 4 0 12 7 19 15 16 19 4 52 -23 59
-42 11 -50 8 -42 -21z"/>
<path d="M7250 3025 c0 -16 46 -43 56 -32 7 7 -32 47 -46 47 -5 0 -10 -7 -10
-15z"/>
<path d="M7435 3022 c-11 -12 10 -22 43 -22 29 0 34 3 24 13 -12 11 -58 18
-67 9z"/>
<path d="M7622 2976 c-17 -23 -19 -31 -9 -47 14 -22 27 -25 27 -5 0 8 5 16 12
18 8 3 8 12 1 33 l-9 28 -22 -27z"/>
<path d="M7243 2765 c-7 -21 11 -39 31 -32 22 8 20 20 -4 35 -17 10 -21 10
-27 -3z"/>
</g>
</svg>
